<svg height="512pt" viewBox="0 0 512 512.00084" width="512pt" xmlns="http://www.w3.org/2000/svg">
<path fill="#fff" d="m448 467c-4.140625 0-7.5 3.359375-7.5 7.5 0 4.144531 3.359375 7.5 7.5 7.5h26.5c4.140625 0 7.5-3.355469 7.5-7.5v-182c0-4.140625-3.359375-7.5-7.5-7.5h-437c-4.140625 0-7.5 3.359375-7.5 7.5v182c0 4.144531 3.359375 7.5 7.5 7.5h378.167969c4.140625 0 7.5-3.355469 7.5-7.5 0-4.140625-3.359375-7.5-7.5-7.5h-370.667969v-167h422v167zm0 0"/>
<path fill="#fff" d="m504.5 154.5h-373.230469l371.109375-83.453125c6.0625-1.355469 9.925782-7.203125 8.796875-13.3125l-8.9375-48.324219c-.5625-3.058594-2.375-5.796875-4.972656-7.507812-2.601563-1.71875-5.835937-2.308594-8.859375-1.621094l-16.429688 3.691406c-4.042968.910156-6.582031 4.921875-5.671874 8.964844.910156 4.042969 4.921874 6.582031 8.960937 5.671875l12.882813-2.898437 7.664062 41.4375-41.09375 9.242187-25.40625-37.449219 14.738281-3.3125c4.039063-.910156 6.578125-4.921875 5.671875-8.964844-.910156-4.039062-4.925781-6.582031-8.964844-5.671874l-25.421874 5.714843c-.019532.003907-.039063.011719-.058594.015625l-51.308594 11.535156c-.003906 0-.003906.003907-.003906.003907l-319.050782 71.738281c-4.203124-.980469-8.582031-1.5-13.078124-1.5h-15.199219c-9.171875 0-16.636719 7.460938-16.636719 16.632812v172.867188c0 4.140625 3.359375 7.5 7.5 7.5s7.5-3.359375 7.5-7.5v-34.914062c.539062.054687 1.085938.078124 1.636719.078124h15.199219c20.320312 0 38.214843-10.597656 48.445312-26.554687h27.183594.03125 52.589844.046874 44.289063.03125 52.585937.050782 44.285156.03125 52.589844.046875 44.285156.03125 52.589844.050781 46v270.390625h-482v-177.25c0-4.140625-3.359375-7.5-7.5-7.5s-7.5 3.359375-7.5 7.5v184.75c0 4.144531 3.359375 7.5 7.5 7.5h497c4.140625 0 7.5-3.355469 7.5-7.5v-342.5c0-4.144531-3.359375-7.5-7.5-7.5zm-7.5 57h-34.996094l16.53125-42h18.464844zm-367.195312-115.210938 25.40625 37.449219-35.582032 8-25.40625-37.449219zm15.726562-3.539062 27.558594-6.195312 25.410156 37.453124-27.5625 6.195313zm122.148438-27.464844 25.410156 37.449219-27.558594 6.199219-25.40625-37.453125zm41.136718 33.910156-25.40625-37.445312 35.578125-8 25.40625 37.445312zm-94.59375 21.273438-25.40625-37.449219 35.578125-8 25.410157 37.449219zm1.695313 49.03125-16.53125 42h-28.246094l16.527344-42zm96.953125 0-16.53125 42h-28.246094l16.53125-42zm96.957031 0-16.53125 42h-28.246094l16.53125-42zm52.585937 0-16.527343 42h-36.46875l16.527343-42zm-113.484374 42h-36.46875l16.53125-42h36.46875zm-96.957032 0h-36.464844l16.527344-42h36.46875zm-96.953125 0h-36.46875l16.53125-42h36.464844zm-52.589843 0h-15.3125c1.441406-5.03125 2.21875-10.34375 2.21875-15.835938v-26.167968h29.625zm257.695312-123.839844-25.40625-37.449218 27.558594-6.195313 25.40625 37.449219zm78.867188-17.734375-35.582032 8-25.40625-37.445312 35.578125-8zm-360.5 37.898438 25.414062 37.453125-15.039062 3.382812c-1.984376-15.511718-10.175782-29.113281-21.992188-38.222656zm-46.660157 130.339843h-15.195312c-.902344 0-1.636719-.730468-1.636719-1.632812v-121.398438c0-.902343.734375-1.632812 1.636719-1.632812h15.199219c3.828124 0 7.542968.507812 11.074218 1.460938.011719.003906.023438.007812.035156.011718 18.0625 4.894532 31.390626 21.433594 31.390626 41.027344 0 .667969-.003907-3.898438 0 39.667969-.003907 23.433593-19.066407 42.496093-42.503907 42.496093zm0 0"/>
<path fill="#fff" d="m430 325.5h-180c-4.140625 0-7.5 3.359375-7.5 7.5s3.359375 7.5 7.5 7.5h180c4.140625 0 7.5-3.359375 7.5-7.5s-3.359375-7.5-7.5-7.5zm0 0"/>
<path fill="#fff" d="m430 358.832031h-180c-4.140625 0-7.5 3.359375-7.5 7.5 0 4.144531 3.359375 7.5 7.5 7.5h180c4.140625 0 7.5-3.355469 7.5-7.5 0-4.140625-3.359375-7.5-7.5-7.5zm0 0"/>
<path fill="#fff" d="m430 392.167969h-180c-4.140625 0-7.5 3.355469-7.5 7.5 0 4.140625 3.359375 7.5 7.5 7.5h180c4.140625 0 7.5-3.359375 7.5-7.5 0-4.144531-3.359375-7.5-7.5-7.5zm0 0"/>
<path fill="#fff" d="m430 425.5h-180c-4.140625 0-7.5 3.359375-7.5 7.5 0 4.144531 3.359375 7.5 7.5 7.5h180c4.140625 0 7.5-3.355469 7.5-7.5 0-4.140625-3.359375-7.5-7.5-7.5zm0 0"/>
<path fill="#fff" d="m42 132.5c-4.140625 0-7.5 3.355469-7.5 7.5v66c0 4.140625 3.359375 7.5 7.5 7.5s7.5-3.359375 7.5-7.5v-66c0-4.144531-3.359375-7.5-7.5-7.5zm0 0"/></svg>