<?xml version="1.0" encoding="iso-8859-1"?>
<!-- Generator: Adobe Illustrator 19.0.0, SVG Export Plug-In . SVG Version: 6.00 Build 0)  -->
<svg version="1.1" id="Capa_1" xmlns="http://www.w3.org/2000/svg" xmlns:xlink="http://www.w3.org/1999/xlink" x="0px" y="0px"
	 viewBox="0 0 512 512" style="enable-background:new 0 0 512 512;" xml:space="preserve">
<g>
	<g>
		<path fill="#ffffff" d="M166,420h-30c-8.284,0-15,6.716-15,15s6.716,15,15,15h30c8.284,0,15-6.716,15-15S174.284,420,166,420z"/>
	</g>
</g>
<g>
	<g>
		<path fill="#ffffff" d="M421,344.116v-82.188c17.916-10.391,30-29.769,30-51.928c0-22.225-12.156-41.652-30.159-52.02
			C417.149,70.243,344.629,0,256,0S94.851,70.243,91.159,157.98C73.156,168.348,61,187.775,61,210c0,22.159,12.084,41.537,30,51.928
			v82.191c-36.302,17.254-60,54.087-60,94.935V497c0,8.284,6.716,15,15,15h420c8.284,0,15-6.716,15-15v-57.971
			C481,398.188,457.301,361.361,421,344.116z M391,180c16.542,0,30,13.458,30,30s-13.458,30-30,30h-7.722
			c4.994-14.082,7.722-29.228,7.722-45V180z M256,300c-57.897,0-105-47.103-105-105v-15h37.918c22.959,0,45.418-6.38,64.949-18.451
			c9.62-5.946,18.323-13.144,25.905-21.373C292.398,163.85,317.349,180,346,180h15v3.949l-15.408,16.743
			C322.604,225.673,289.948,240,256,240c-8.284,0-15,6.716-15,15s6.716,15,15,15c35.598,0,70.054-12.642,97.156-35.194
			C337.441,273.021,299.815,300,256,300z M317.696,357.667C303.869,377.677,280.979,390,256,390s-47.869-12.323-61.696-32.333
			c2.749-0.356,13.427-0.676,16.228-11.629L216.167,324c12.596,3.897,25.973,6,39.833,6s27.237-2.102,39.833-6l5.635,22.037
			c1.521,5.948,6.513,10.369,12.601,11.159L317.696,357.667z M188.328,311.776l-4.342,16.979L121,336.928V270h22.806
			C155.26,287.078,170.505,301.407,188.328,311.776z M368.195,270H391v66.932l-62.986-8.177l-4.342-16.979
			C341.495,301.407,356.741,287.078,368.195,270z M256,30c69.369,0,126.676,52.595,134.162,120H346c-24.813,0-45-20.187-45-45
			c0-6.957-4.783-13-11.554-14.599c-6.773-1.599-13.752,1.668-16.863,7.89C256.636,130.187,224.577,150,188.918,150h-67.08
			C129.324,82.595,186.631,30,256,30z M121,180v15c0,15.772,2.728,30.918,7.722,45H121c-16.542,0-30-13.458-30-30
			S104.458,180,121,180z M451,482H61v-42.947c0-31.441,19.642-59.565,49.029-70.45l51.999-6.748C179.73,397.372,215.948,420,256,420
			s76.269-22.628,93.971-58.143l52.022,6.753C431.368,379.491,451,407.602,451,439.029V482z"/>
	</g>
</g>
<g>
</g>
<g>
</g>
<g>
</g>
<g>
</g>
<g>
</g>
<g>
</g>
<g>
</g>
<g>
</g>
<g>
</g>
<g>
</g>
<g>
</g>
<g>
</g>
<g>
</g>
<g>
</g>
<g>
</g>
</svg>
