<?xml version="1.0"?>
<svg xmlns="http://www.w3.org/2000/svg" viewBox="0 0 512 512" width="512" height="512"><g id="outline">
<path fill="#1e73be" d="M109.373,120.686a8,8,0,0,0-11.743.464,208,208,0,0,0,150.585,342.7q3.925.146,7.839.146a207.159,207.159,0,0,0,134.8-49.628,8,8,0,0,0,.464-11.743Zm78.165,146.563A8,8,0,0,0,192,260.074V225.94l152.8,152.8A87.747,87.747,0,0,1,279.989,408h-.138A87.63,87.63,0,0,1,196,346.283,71.513,71.513,0,0,0,171.133,310.7l-45.4-34.833a20,20,0,1,1,24.349-31.735l29.047,22.287A8,8,0,0,0,187.538,267.249ZM248.81,447.863a192.017,192.017,0,0,1-144.49-309.6L176,209.94v33.913L159.823,231.44a36,36,0,1,0-43.829,57.122l45.4,34.834a55.608,55.608,0,0,1,19.333,27.659A104.035,104.035,0,0,0,279.823,424h.166a103.78,103.78,0,0,0,76.136-33.934l17.614,17.614A191.337,191.337,0,0,1,248.81,447.863Z"/>
<path fill="#1e73be" d="M256,16A240,240,0,0,0,86.294,425.706,240,240,0,0,0,425.706,86.294,238.43,238.43,0,0,0,256,16ZM414.392,414.392A224,224,0,0,1,97.608,97.608,224,224,0,0,1,414.392,414.392Z"/>
<path fill="#1e73be" d="M263.785,48.148A207.215,207.215,0,0,0,121.15,97.63a8,8,0,0,0-.464,11.743L402.627,391.314a8,8,0,0,0,5.657,2.343c.105,0,.21,0,.316-.006a8,8,0,0,0,5.77-2.8,208,208,0,0,0-150.585-342.7ZM224,190.06l-32-32V144.54a16.88,16.88,0,0,1,5.055-11.963A15.51,15.51,0,0,1,208.312,128,16.075,16.075,0,0,1,224,144ZM272,136V238.06l-32-32V112a16.075,16.075,0,0,1,15.688-16,15.529,15.529,0,0,1,11.257,4.573A16.88,16.88,0,0,1,272,112.54Zm96,182.824a88.452,88.452,0,0,1-1.137,14.1L288,254.06V136a16.075,16.075,0,0,1,15.688-16,15.607,15.607,0,0,1,11.257,4.573A16.88,16.88,0,0,1,320,136.54V256a8,8,0,0,0,16,0V176a16.075,16.075,0,0,1,15.688-16,15.531,15.531,0,0,1,11.257,4.573A16.88,16.88,0,0,1,368,176.54Zm39.68,54.915L379.9,345.958l.482.13A104.49,104.49,0,0,0,384,318.824V176.54a32.972,32.972,0,0,0-9.85-23.384A31.469,31.469,0,0,0,351.989,144q-.3,0-.6,0A31.619,31.619,0,0,0,336,148.336v-11.8a32.972,32.972,0,0,0-9.85-23.384A31.469,31.469,0,0,0,303.989,104q-.3,0-.6,0a31.639,31.639,0,0,0-15.643,4.481,33.049,33.049,0,0,0-9.592-19.331A31.469,31.469,0,0,0,255.989,80q-.3,0-.6,0A32.158,32.158,0,0,0,224,112v4.335a31.5,31.5,0,0,0-38.15,4.821,33.02,33.02,0,0,0-9.751,21L138.261,104.32A192.017,192.017,0,0,1,407.68,373.739Z"/></g></svg>
