<svg height="512pt" viewBox="0 0 512 512" width="512pt" xmlns="http://www.w3.org/2000/svg">
<path fill="#1e73be" d="m138.257812 268.671875c0 13.515625 11.003907 24.511719 24.527344 24.511719 13.527344 0 24.53125-10.996094 24.53125-24.511719 0-13.519531-11.003906-24.515625-24.53125-24.515625-13.523437 0-24.527344 10.996094-24.527344 24.515625zm34.058594 0c0 5.246094-4.273437 9.511719-9.53125 9.511719-5.253906 0-9.527344-4.265625-9.527344-9.511719s4.273438-9.515625 9.527344-9.515625c5.257813 0 9.53125 4.269531 9.53125 9.515625zm0 0"/>
<path fill="#1e73be" d="m349.214844 293.183594c13.523437 0 24.527344-10.996094 24.527344-24.511719 0-13.519531-11.003907-24.515625-24.527344-24.515625-13.527344 0-24.53125 10.996094-24.53125 24.515625 0 13.515625 11.003906 24.511719 24.53125 24.511719zm0-34.027344c5.253906 0 9.527344 4.269531 9.527344 9.515625s-4.273438 9.511719-9.527344 9.511719c-5.257813 0-9.53125-4.265625-9.53125-9.511719s4.273437-9.515625 9.53125-9.515625zm0 0"/>
<path fill="#1e73be" d="m299.6875 316.742188c-.007812-.007813-.015625-.011719-.023438-.019532l-200.019531-199.84375c-1.492187-1.488281-3.539062-2.277344-5.652343-2.1875-2.105469.101563-4.074219 1.082032-5.421876 2.707032-32.148437 38.792968-49.855468 87.9375-49.855468 138.382812 0 54.832031 20.511718 107.183594 57.761718 147.40625 37.039063 39.996094 87.257813 64.480469 141.40625 68.949219.210938.019531.417969.023437.625.023437 3.863282 0 7.144532-2.964844 7.46875-6.882812.339844-4.128906-2.730468-7.75-6.859374-8.089844-50.402344-4.160156-97.152344-26.957031-131.636719-64.191406-34.671875-37.441406-53.765625-86.171875-53.765625-137.214844 0-44.199219 14.601562-87.328125 41.273437-122.351562l56.476563 56.425781c-.015625.554687-.035156 1.109375-.035156 1.664062v14.242188c-23.859376 9.863281-40.695313 33.363281-40.695313 60.722656v76.488281c0 18.1875 14.808594 32.984375 33.007813 32.984375 18.199218 0 33.003906-14.796875 33.003906-32.984375v-13.4375h36.308594c4.144531 0 7.5-3.355468 7.5-7.5 0-4.140625-3.355469-7.5-7.5-7.5h-87.316407v-48.050781c0-27.949219 22.761719-50.6875 50.742188-50.6875h.949219l98.828124 98.738281h-28.199218c-4.140625 0-7.5 3.359375-7.5 7.5 0 4.144532 3.359375 7.5 7.5 7.5h43.210937l87.191407 87.117188c-30.6875 23.378906-67.015626 37.351562-105.578126 40.535156-4.128906.339844-7.199218 3.960938-6.855468 8.089844.339844 4.128906 3.964844 7.203125 8.089844 6.859375 44.378906-3.664063 86.007812-20.628907 120.378906-49.066407 1.625-1.347656 2.609375-3.316406 2.710937-5.429687.097657-2.109375-.699219-4.164063-2.191406-5.65625zm-137.941406 12.792968v13.4375c0 9.917969-8.078125 17.984375-18.003906 17.984375-9.929688 0-18.007813-8.066406-18.007813-17.984375v-13.4375zm0 0"/>
<path fill="#1e73be" d="m409.644531 102.261719c-41.042969-41-95.605469-63.582031-153.644531-63.582031-50.734375 0-100.113281 17.851562-139.039062 50.269531-1.621094 1.351562-2.597657 3.316406-2.691407 5.425781-.097656 2.105469.699219 4.152344 2.191407 5.644531l54.660156 54.613281c.136718.175782.28125.351563.433594.515626.28125.304687.585937.570312.898437.816406l57.679687 57.628906c.003907.003906.011719.007812.015626.011719l181.761718 181.601562c1.40625 1.40625 3.316406 2.195313 5.300782 2.195313.109374 0 .226562-.003906.339843-.007813 2.101563-.097656 4.070313-1.070312 5.417969-2.691406 32.449219-38.890625 50.320312-88.226563 50.320312-138.921875-.003906-57.992188-22.605468-112.511719-63.644531-153.519531zm-93.195312 98.535156h-77.902344l-31.675781-31.648437c3.71875-2.289063 8.035156-3.546876 12.492187-3.546876h73.273438c13.128906 0 23.8125 10.671876 23.8125 23.785157zm69.816406 142.175781c0 1.625-.226563 3.222656-.648437 4.761719l-18.214844-18.199219h18.863281zm30.320313 35.703125-19.558594-19.542969c2.757812-4.898437 4.238281-10.449218 4.238281-16.160156v-76.488281c0-27.042969-16.136719-50.804687-40.695313-60.773437v-14.195313c0-35.300781-28.742187-64.019531-64.066406-64.019531h-23.003906c-4.144531 0-7.5 3.359375-7.5 7.5 0 4.144531 3.355469 7.5 7.5 7.5h23.003906c27.054688 0 49.066406 21.992187 49.066406 49.019531v19.429687c-.015624 3.261719 2.175782 6.25 5.300782 7.207032 21.171875 6.59375 35.394531 26.011718 35.394531 48.332031v48.050781h-33.875l-98.828125-98.742187h70.386719c3.71875 0 7.5-3.722657 7.5-7.519531v-18.890626c0-21.386718-17.410157-38.78125-38.8125-38.78125h-73.273438c-8.464843 0-16.621093 2.769532-23.285156 7.761719l-7.695313-7.691406c7.988282-5.304687 17.375-8.175781 27.117188-8.175781h22.996094c4.140625 0 7.5-3.355469 7.5-7.5 0-4.140625-3.359375-7.5-7.5-7.5h-22.996094c-13.746094 0-26.949219 4.375-37.890625 12.410156l-44.613281-44.570312c35.164062-26.921876 78.523437-41.65625 123.003906-41.65625 111.539062 0 202.285156 90.660156 202.285156 202.101562 0 44.441406-14.753906 87.765625-41.699218 122.894531zm0 0"/>
<path fill="#1e73be" d="m437.015625 74.914062c-48.351563-48.308593-112.636719-74.914062-181.015625-74.914062s-132.664062 26.605469-181.019531 74.914062c-48.351563 48.308594-74.980469 112.542969-74.980469 180.867188 0 68.320312 26.628906 132.554688 74.980469 180.863281 48.355469 48.308594 112.640625 74.914063 181.019531 74.914063s132.664062-26.605469 181.015625-74.914063c48.355469-48.308593 74.984375-112.542969 74.984375-180.863281 0-68.324219-26.628906-132.558594-74.984375-180.867188zm-10.601563 351.121094c-45.519531 45.480469-106.039062 70.523438-170.414062 70.523438s-124.894531-25.042969-170.414062-70.523438c-45.519532-45.476562-70.585938-105.941406-70.585938-170.253906s25.066406-124.777344 70.585938-170.257812c45.519531-45.476563 106.039062-70.523438 170.414062-70.523438s124.894531 25.046875 170.414062 70.523438c45.519532 45.480468 70.585938 105.945312 70.585938 170.257812s-25.066406 124.777344-70.585938 170.253906zm0 0"/></svg>