<?xml version="1.0" encoding="iso-8859-1"?>
<!-- Generator: Adobe Illustrator 16.0.0, SVG Export Plug-In . SVG Version: 6.00 Build 0)  -->
<svg version="1.2" baseProfile="tiny" id="Layer_1" xmlns="http://www.w3.org/2000/svg" xmlns:xlink="http://www.w3.org/1999/xlink"
	 x="0px" y="0px" width="193px" height="110.415px" viewBox="0 0 193 110.415" xml:space="preserve">
<g>
	<path fill="none" d="M19.939,22.564c-3.216,0-5.709,1.375-7.48,4.126c-1.772,2.749-2.658,6.686-2.658,11.81
		c0,4.697,0.875,8.476,2.624,11.339c1.75,2.864,4.254,4.296,7.514,4.296c3.215,0,5.708-1.325,7.48-3.974
		c1.771-2.65,2.658-6.651,2.658-11.999c0-4.722-0.821-8.502-2.461-11.341C25.976,23.983,23.417,22.564,19.939,22.564z"/>
	<path fill="none" d="M94.625,28.578c-0.727-1.416-1.702-2.55-2.928-3.399c-1.226-0.849-2.75-1.273-4.573-1.273
		c-0.912,0-1.811,0.135-2.694,0.402c-0.882,0.271-1.78,0.695-2.692,1.275c-0.912,0.581-1.866,1.345-2.863,2.294
		c-0.998,0.949-2.052,2.117-3.163,3.505V46.59c1.937,2.35,3.775,4.149,5.513,5.395c1.739,1.246,3.562,1.869,5.471,1.869
		c1.767,0,3.284-0.426,4.552-1.274c1.267-0.851,2.294-1.982,3.077-3.399c0.784-1.415,1.361-3.001,1.731-4.757
		c0.37-1.755,0.556-3.526,0.556-5.31c0-1.954-0.149-3.846-0.447-5.672C95.864,31.615,95.351,29.994,94.625,28.578z"/>
	<path fill="none" d="M114.522,91.158c-1.789,0-3.178,0.712-4.164,2.136c-0.986,1.423-1.479,3.462-1.479,6.114
		c0,2.431,0.486,4.388,1.462,5.869c0.974,1.483,2.367,2.225,4.182,2.225c1.79,0,3.178-0.687,4.165-2.06
		c0.985-1.369,1.479-3.44,1.479-6.211c0-2.443-0.457-4.4-1.37-5.87C117.884,91.893,116.458,91.158,114.522,91.158z"/>
	<path fill="none" d="M179.419,50.161c1.772-2.65,2.658-6.651,2.658-11.999c0-4.722-0.82-8.502-2.461-11.341
		c-1.64-2.838-4.198-4.257-7.676-4.257c-3.216,0-5.71,1.375-7.48,4.126c-1.772,2.749-2.658,6.686-2.658,11.81
		c0,4.697,0.875,8.476,2.625,11.339c1.749,2.864,4.254,4.296,7.514,4.296C175.155,54.135,177.648,52.81,179.419,50.161z"/>
	<path fill="none" d="M77.87-170.062c-11.621-13.716-21.788-12.005-30.012,3.915c-9.319,18.04-11.128,37.629-12.028,62.679
		c0.979,6.211,1.829,17.701,4.723,28.65c5.473,20.701,18.777,25.698,37.222,14.72C93.28-69.329,104.778-82.832,115.478-97
		c1.122-1.487,0.579-4.836-0.037-6.878C104.729-139.371,85.027-161.613,77.87-170.062z"/>
	<path fill="none" d="M182.665,91.054c-0.935,0-1.755,0.176-2.459,0.526c-0.705,0.35-1.295,0.814-1.771,1.393
		c-0.475,0.579-0.844,1.253-1.103,2.022c-0.261,0.769-0.406,1.572-0.437,2.41h11.216c0.046-1.979-0.396-3.533-1.321-4.66
		C185.864,91.618,184.488,91.054,182.665,91.054z"/>
	<path fill="none" d="M10.522,107.502c1.79,0,3.178-0.687,4.165-2.06c0.986-1.369,1.479-3.44,1.479-6.211
		c0-2.443-0.457-4.4-1.371-5.87c-0.912-1.469-2.337-2.203-4.273-2.203c-1.79,0-3.178,0.712-4.165,2.136
		c-0.985,1.423-1.479,3.462-1.479,6.114c0,2.431,0.487,4.388,1.462,5.869C7.314,106.761,8.707,107.502,10.522,107.502z"/>
	<path fill="#17C2EB" d="M32.209,17.93l-1.443,6.819c-2.582-4.973-6.562-7.459-11.943-7.459c-4.9,0-8.781,1.959-11.647,5.877
		c-2.865,3.918-4.298,9.217-4.298,15.898c0,5.752,1.373,10.566,4.119,14.447c2.744,3.881,6.621,5.821,11.63,5.821
		c5.161,0,9.251-2.762,12.27-8.288c0.328,1.984,0.83,4.408,1.509,7.271h6.693c-1.86-6.58-2.789-13.523-2.789-20.833
		c0-6.454,0.787-12.974,2.362-19.554H32.209z M27.419,50.161c-1.772,2.648-4.265,3.974-7.48,3.974c-3.26,0-5.764-1.432-7.514-4.296
		c-1.749-2.863-2.624-6.642-2.624-11.339c0-5.124,0.886-9.061,2.658-11.81c1.771-2.751,4.264-4.126,7.48-4.126
		c3.478,0,6.037,1.419,7.677,4.257c1.64,2.839,2.461,6.619,2.461,11.341C30.077,43.51,29.19,47.511,27.419,50.161z"/>
	<path fill="#17C2EB" d="M49.437,58.994c0.27,0.113,0.63,0.198,1.083,0.254c0.454,0.058,1.02,0.085,1.7,0.085
		c0.708,0,1.289-0.027,1.742-0.085c0.453-0.056,0.806-0.141,1.062-0.254c0.254-0.114,0.439-0.249,0.552-0.404
		c0.113-0.154,0.17-0.346,0.17-0.573V1.263c0-0.226-0.057-0.425-0.17-0.595c-0.113-0.17-0.298-0.311-0.552-0.425
		c-0.256-0.113-0.609-0.198-1.062-0.254c-0.453-0.057-1.034-0.086-1.742-0.086c-0.68,0-1.246,0.029-1.7,0.086
		c-0.453,0.056-0.813,0.141-1.083,0.254c-0.269,0.114-0.453,0.255-0.551,0.425c-0.1,0.17-0.149,0.369-0.149,0.595v56.754
		c0,0.228,0.049,0.419,0.149,0.573C48.983,58.745,49.167,58.88,49.437,58.994z"/>
	<path fill="#17C2EB" d="M103.876,38.305c0-2.773-0.284-5.401-0.85-7.88c-0.567-2.477-1.466-4.651-2.698-6.52
		c-1.231-1.869-2.825-3.343-4.778-4.418c-1.955-1.076-4.319-1.614-7.094-1.614c-1.275,0-2.486,0.147-3.632,0.445
		c-1.148,0.298-2.267,0.736-3.357,1.316c-1.089,0.582-2.173,1.312-3.249,2.188c-1.077,0.879-2.195,1.911-3.356,3.102v-5.141
		c0-0.254-0.05-0.46-0.148-0.615c-0.1-0.156-0.277-0.29-0.532-0.405c-0.255-0.112-0.573-0.189-0.956-0.232
		c-0.382-0.042-0.871-0.064-1.465-0.064c-0.567,0-1.048,0.022-1.445,0.064c-0.396,0.043-0.722,0.12-0.976,0.232
		c-0.255,0.115-0.425,0.249-0.51,0.405c-0.085,0.155-0.127,0.361-0.127,0.615v53.397c0,0.228,0.049,0.425,0.148,0.595
		c0.099,0.171,0.282,0.313,0.552,0.426c0.27,0.112,0.63,0.197,1.083,0.255c0.453,0.056,1.02,0.085,1.699,0.085
		c0.708,0,1.289-0.029,1.742-0.085c0.454-0.058,0.807-0.143,1.063-0.255c0.254-0.113,0.438-0.255,0.552-0.426
		c0.113-0.17,0.17-0.367,0.17-0.595V54.065c1.019,0.991,1.982,1.856,2.888,2.592c0.907,0.736,1.82,1.346,2.741,1.826
		c0.919,0.482,1.861,0.835,2.825,1.063c0.962,0.226,2.009,0.339,3.142,0.339c2.662,0,5.028-0.502,7.095-1.507
		s3.801-2.437,5.204-4.29c1.401-1.855,2.463-4.114,3.186-6.777C103.515,44.649,103.876,41.647,103.876,38.305z M96.056,44.423
		c-0.37,1.756-0.947,3.342-1.731,4.757c-0.783,1.417-1.81,2.549-3.077,3.399c-1.268,0.849-2.785,1.274-4.552,1.274
		c-1.909,0-3.732-0.623-5.471-1.869c-1.738-1.245-3.576-3.045-5.513-5.395V31.382c1.111-1.388,2.165-2.556,3.163-3.505
		c0.997-0.949,1.951-1.713,2.863-2.294c0.912-0.58,1.81-1.005,2.692-1.275c0.883-0.268,1.782-0.402,2.694-0.402
		c1.823,0,3.347,0.425,4.573,1.273c1.226,0.85,2.201,1.983,2.928,3.399c0.726,1.416,1.239,3.037,1.539,4.863
		c0.298,1.826,0.447,3.718,0.447,5.672C96.611,40.896,96.426,42.668,96.056,44.423z"/>
	<path fill="#17C2EB" d="M132.21,23.948c1.359,0,2.556,0.254,3.59,0.763c1.033,0.511,1.876,1.247,2.527,2.209
		c0.651,0.964,1.146,2.111,1.485,3.442c0.341,1.331,0.511,3.087,0.511,5.267v22.388c0,0.228,0.057,0.419,0.17,0.573
		c0.113,0.155,0.298,0.29,0.553,0.404c0.255,0.113,0.608,0.198,1.063,0.254c0.452,0.058,1.033,0.085,1.741,0.085
		c0.68,0,1.246-0.027,1.699-0.085c0.453-0.056,0.808-0.141,1.062-0.254c0.256-0.114,0.439-0.249,0.553-0.404
		c0.113-0.154,0.17-0.346,0.17-0.573V34.737c0-2.746-0.233-5.09-0.701-7.031c-0.467-1.938-1.239-3.631-2.314-5.076
		c-1.077-1.443-2.485-2.597-4.228-3.462c-1.741-0.863-3.887-1.296-6.436-1.296c-2.067,0-4.12,0.518-6.159,1.551
		c-2.039,1.034-4.064,2.613-6.075,4.737V1.263c0-0.226-0.057-0.425-0.17-0.595s-0.298-0.311-0.552-0.425
		c-0.256-0.113-0.609-0.198-1.063-0.254c-0.453-0.057-1.034-0.086-1.742-0.086c-0.68,0-1.246,0.029-1.699,0.086
		c-0.453,0.056-0.813,0.141-1.083,0.254c-0.27,0.114-0.453,0.255-0.552,0.425c-0.1,0.17-0.148,0.369-0.148,0.595v56.754
		c0,0.228,0.049,0.419,0.148,0.573c0.099,0.155,0.282,0.29,0.552,0.404c0.27,0.113,0.63,0.198,1.083,0.254
		c0.453,0.058,1.02,0.085,1.699,0.085c0.708,0,1.289-0.027,1.742-0.085c0.453-0.056,0.807-0.141,1.063-0.254
		c0.254-0.114,0.438-0.249,0.552-0.404c0.113-0.154,0.17-0.346,0.17-0.573V31.296c1.926-2.406,3.767-4.232,5.522-5.479
		S130.454,23.948,132.21,23.948z"/>
	<path fill="#17C2EB" d="M182.898,51.046c0.327,1.984,0.83,4.408,1.508,7.271h6.693c-1.859-6.58-2.789-13.523-2.789-20.833
		c0-6.454,0.787-12.974,2.362-19.554h-6.463l-1.443,6.819c-2.581-4.973-6.562-7.459-11.942-7.459c-4.899,0-8.781,1.959-11.647,5.877
		c-2.865,3.918-4.299,9.217-4.299,15.898c0,5.752,1.373,10.566,4.119,14.447c2.744,3.881,6.622,5.821,11.63,5.821
		C175.789,59.334,179.878,56.572,182.898,51.046z M164.427,49.839c-1.75-2.863-2.625-6.642-2.625-11.339
		c0-5.124,0.886-9.061,2.658-11.81c1.771-2.751,4.265-4.126,7.48-4.126c3.478,0,6.036,1.419,7.676,4.257
		c1.641,2.839,2.461,6.619,2.461,11.341c0,5.348-0.886,9.349-2.658,11.999c-1.771,2.648-4.264,3.974-7.479,3.974
		C168.681,54.135,166.176,52.703,164.427,49.839z"/>
	<path fill="#EE3034" d="M3.316,107.179c1.529,2.009,3.687,3.013,6.476,3.013c2.873,0,5.15-1.43,6.831-4.29
		c0.182,1.027,0.462,2.282,0.839,3.765h3.727c-1.036-3.406-1.553-7.001-1.553-10.785c0-3.341,0.438-6.714,1.315-10.121h-3.598
		l-0.804,3.53c-1.436-2.575-3.653-3.862-6.649-3.862c-2.727,0-4.888,1.014-6.483,3.042s-2.393,4.772-2.393,8.23
		C1.024,102.679,1.789,105.172,3.316,107.179z M6.357,93.294c0.987-1.424,2.375-2.136,4.165-2.136c1.936,0,3.361,0.734,4.273,2.203
		c0.914,1.47,1.371,3.427,1.371,5.87c0,2.771-0.493,4.842-1.479,6.211c-0.987,1.373-2.375,2.06-4.165,2.06
		c-1.815,0-3.208-0.741-4.182-2.225c-0.975-1.481-1.462-3.438-1.462-5.869C4.878,96.756,5.372,94.717,6.357,93.294z"/>
	<path fill="#EE3034" d="M25.206,109.033c0.167,0.152,0.433,0.323,0.8,0.513c0.365,0.191,0.81,0.373,1.335,0.549
		c0.526,0.176,1.12,0.319,1.783,0.435c0.662,0.114,1.359,0.171,2.09,0.171c1.188,0,2.276-0.145,3.266-0.434
		c0.99-0.289,1.843-0.717,2.559-1.279c0.716-0.564,1.268-1.257,1.656-2.079c0.389-0.823,0.583-1.759,0.583-2.81
		c0-0.884-0.148-1.646-0.445-2.284c-0.298-0.641-0.69-1.189-1.177-1.646c-0.487-0.457-1.048-0.845-1.679-1.165
		c-0.633-0.319-1.272-0.608-1.919-0.868c-0.647-0.259-1.283-0.511-1.908-0.754c-0.624-0.243-1.18-0.517-1.667-0.821
		c-0.488-0.306-0.884-0.659-1.188-1.063c-0.305-0.403-0.457-0.902-0.457-1.496c0-0.426,0.08-0.821,0.24-1.188
		c0.16-0.365,0.395-0.683,0.708-0.948c0.312-0.266,0.712-0.472,1.199-0.617c0.487-0.144,1.051-0.216,1.69-0.216
		c0.716,0,1.352,0.084,1.909,0.251c0.555,0.168,1.039,0.346,1.45,0.537c0.411,0.189,0.746,0.369,1.005,0.536
		c0.259,0.168,0.457,0.252,0.593,0.252c0.092,0,0.176-0.027,0.252-0.08c0.077-0.054,0.141-0.141,0.195-0.263
		c0.053-0.122,0.091-0.278,0.114-0.47c0.023-0.189,0.034-0.414,0.034-0.674c0-0.243-0.011-0.449-0.034-0.616
		c-0.023-0.168-0.046-0.308-0.069-0.423c-0.023-0.114-0.061-0.216-0.115-0.308c-0.052-0.092-0.159-0.198-0.319-0.32
		c-0.16-0.122-0.396-0.262-0.708-0.422c-0.312-0.161-0.689-0.309-1.131-0.446c-0.442-0.137-0.936-0.252-1.485-0.343
		c-0.548-0.091-1.096-0.137-1.645-0.137c-1.249,0-2.341,0.168-3.278,0.503c-0.936,0.335-1.717,0.78-2.341,1.337
		c-0.625,0.555-1.094,1.203-1.405,1.941c-0.313,0.737-0.469,1.512-0.469,2.317c0,0.914,0.149,1.699,0.446,2.354
		c0.297,0.653,0.689,1.218,1.176,1.689c0.488,0.473,1.04,0.872,1.657,1.2c0.617,0.327,1.249,0.62,1.896,0.878
		c0.646,0.26,1.275,0.507,1.885,0.744c0.608,0.236,1.157,0.505,1.644,0.81c0.488,0.306,0.879,0.655,1.177,1.052
		c0.297,0.396,0.445,0.884,0.445,1.462c0,0.563-0.103,1.051-0.308,1.462c-0.206,0.411-0.499,0.751-0.88,1.016
		c-0.381,0.268-0.83,0.469-1.348,0.606c-0.517,0.137-1.096,0.206-1.736,0.206c-0.853,0-1.607-0.104-2.261-0.31
		c-0.655-0.206-1.222-0.43-1.702-0.674c-0.479-0.243-0.884-0.468-1.211-0.673c-0.328-0.206-0.575-0.31-0.742-0.31
		c-0.108,0-0.202,0.026-0.286,0.08c-0.084,0.055-0.149,0.142-0.194,0.264c-0.046,0.122-0.084,0.281-0.114,0.479
		c-0.031,0.199-0.046,0.443-0.046,0.732c0,0.471,0.038,0.845,0.114,1.119C24.917,108.667,25.038,108.88,25.206,109.033z"/>
	<path fill="#EE3034" d="M52.665,106.873c-0.381,0.268-0.83,0.469-1.348,0.606c-0.517,0.137-1.096,0.206-1.736,0.206
		c-0.853,0-1.607-0.104-2.261-0.31c-0.655-0.206-1.222-0.43-1.702-0.674c-0.479-0.243-0.884-0.468-1.211-0.673
		c-0.328-0.206-0.575-0.31-0.742-0.31c-0.108,0-0.202,0.026-0.286,0.08c-0.084,0.055-0.149,0.142-0.194,0.264
		c-0.046,0.122-0.084,0.281-0.114,0.479c-0.031,0.199-0.046,0.443-0.046,0.732c0,0.471,0.038,0.845,0.114,1.119
		c0.077,0.273,0.198,0.486,0.366,0.64c0.167,0.152,0.433,0.323,0.8,0.513c0.365,0.191,0.81,0.373,1.335,0.549
		c0.526,0.176,1.12,0.319,1.783,0.435c0.662,0.114,1.359,0.171,2.09,0.171c1.188,0,2.276-0.145,3.266-0.434
		c0.99-0.289,1.843-0.717,2.559-1.279c0.716-0.564,1.268-1.257,1.656-2.079c0.389-0.823,0.583-1.759,0.583-2.81
		c0-0.884-0.148-1.646-0.445-2.284c-0.298-0.641-0.69-1.189-1.177-1.646c-0.487-0.457-1.048-0.845-1.679-1.165
		c-0.633-0.319-1.272-0.608-1.919-0.868c-0.647-0.259-1.283-0.511-1.908-0.754c-0.624-0.243-1.18-0.517-1.667-0.821
		c-0.488-0.306-0.884-0.659-1.188-1.063c-0.305-0.403-0.457-0.902-0.457-1.496c0-0.426,0.08-0.821,0.24-1.188
		c0.16-0.365,0.395-0.683,0.708-0.948c0.312-0.266,0.712-0.472,1.199-0.617c0.487-0.144,1.051-0.216,1.69-0.216
		c0.716,0,1.352,0.084,1.909,0.251c0.555,0.168,1.039,0.346,1.45,0.537c0.411,0.189,0.746,0.369,1.005,0.536
		c0.259,0.168,0.457,0.252,0.593,0.252c0.092,0,0.176-0.027,0.252-0.08c0.077-0.054,0.141-0.141,0.195-0.263
		c0.053-0.122,0.091-0.278,0.114-0.47c0.023-0.189,0.034-0.414,0.034-0.674c0-0.243-0.011-0.449-0.034-0.616
		c-0.023-0.168-0.046-0.308-0.069-0.423c-0.023-0.114-0.061-0.216-0.115-0.308c-0.052-0.092-0.159-0.198-0.319-0.32
		s-0.396-0.262-0.708-0.422c-0.312-0.161-0.689-0.309-1.131-0.446c-0.442-0.137-0.936-0.252-1.485-0.343
		c-0.548-0.091-1.096-0.137-1.645-0.137c-1.249,0-2.341,0.168-3.278,0.503c-0.936,0.335-1.717,0.78-2.341,1.337
		c-0.625,0.555-1.094,1.203-1.405,1.941c-0.313,0.737-0.469,1.512-0.469,2.317c0,0.914,0.149,1.699,0.446,2.354
		c0.297,0.653,0.689,1.218,1.176,1.689c0.488,0.473,1.04,0.872,1.657,1.2c0.617,0.327,1.249,0.62,1.896,0.878
		c0.646,0.26,1.275,0.507,1.885,0.744c0.608,0.236,1.157,0.505,1.644,0.81c0.488,0.306,0.879,0.655,1.177,1.052
		c0.297,0.396,0.445,0.884,0.445,1.462c0,0.563-0.103,1.051-0.308,1.462C53.339,106.269,53.046,106.608,52.665,106.873z"/>
	<path fill="#EE3034" d="M66.348,88.61c-0.136-0.062-0.327-0.106-0.571-0.138c-0.243-0.029-0.556-0.046-0.936-0.046
		c-0.366,0-0.67,0.017-0.914,0.046c-0.244,0.031-0.438,0.076-0.583,0.138c-0.144,0.062-0.244,0.137-0.296,0.229
		c-0.054,0.091-0.081,0.19-0.081,0.296v20.561c0,0.122,0.027,0.225,0.081,0.309c0.052,0.084,0.152,0.156,0.296,0.216
		c0.145,0.062,0.339,0.107,0.583,0.139c0.244,0.029,0.548,0.045,0.914,0.045c0.38,0,0.693-0.016,0.936-0.045
		c0.244-0.031,0.435-0.077,0.571-0.139c0.137-0.06,0.237-0.132,0.297-0.216c0.061-0.084,0.092-0.187,0.092-0.309V89.135
		c0-0.105-0.031-0.205-0.092-0.296C66.585,88.747,66.485,88.672,66.348,88.61z"/>
	<path fill="#EE3034" d="M66.679,80.421c-0.327-0.313-0.932-0.469-1.815-0.469c-0.899,0-1.516,0.16-1.851,0.479
		c-0.335,0.32-0.503,0.921-0.503,1.806c0,0.867,0.165,1.458,0.492,1.771c0.327,0.312,0.932,0.467,1.816,0.467
		c0.898,0,1.515-0.16,1.851-0.479c0.334-0.321,0.502-0.922,0.502-1.806C67.171,81.323,67.007,80.733,66.679,80.421z"/>
	<path fill="#EE3034" d="M81.699,106.873c-0.381,0.268-0.83,0.469-1.348,0.606c-0.517,0.137-1.096,0.206-1.736,0.206
		c-0.853,0-1.607-0.104-2.261-0.31c-0.655-0.206-1.222-0.43-1.702-0.674c-0.479-0.243-0.884-0.468-1.211-0.673
		c-0.328-0.206-0.575-0.31-0.742-0.31c-0.108,0-0.202,0.026-0.286,0.08c-0.084,0.055-0.149,0.142-0.194,0.264
		c-0.046,0.122-0.084,0.281-0.114,0.479c-0.031,0.199-0.046,0.443-0.046,0.732c0,0.471,0.038,0.845,0.114,1.119
		c0.077,0.273,0.198,0.486,0.366,0.64c0.167,0.152,0.433,0.323,0.8,0.513c0.365,0.191,0.81,0.373,1.335,0.549
		c0.526,0.176,1.12,0.319,1.783,0.435c0.662,0.114,1.359,0.171,2.09,0.171c1.188,0,2.276-0.145,3.266-0.434
		c0.99-0.289,1.843-0.717,2.559-1.279c0.716-0.564,1.268-1.257,1.656-2.079c0.389-0.823,0.583-1.759,0.583-2.81
		c0-0.884-0.148-1.646-0.445-2.284c-0.298-0.641-0.69-1.189-1.177-1.646c-0.487-0.457-1.048-0.845-1.679-1.165
		c-0.633-0.319-1.272-0.608-1.919-0.868c-0.647-0.259-1.283-0.511-1.908-0.754c-0.624-0.243-1.18-0.517-1.667-0.821
		c-0.488-0.306-0.884-0.659-1.188-1.063c-0.305-0.403-0.457-0.902-0.457-1.496c0-0.426,0.08-0.821,0.24-1.188
		c0.16-0.365,0.395-0.683,0.708-0.948c0.312-0.266,0.712-0.472,1.199-0.617c0.487-0.144,1.051-0.216,1.69-0.216
		c0.716,0,1.352,0.084,1.909,0.251c0.555,0.168,1.039,0.346,1.45,0.537c0.411,0.189,0.746,0.369,1.005,0.536
		c0.259,0.168,0.457,0.252,0.593,0.252c0.092,0,0.176-0.027,0.252-0.08c0.077-0.054,0.141-0.141,0.195-0.263
		c0.053-0.122,0.091-0.278,0.114-0.47c0.023-0.189,0.034-0.414,0.034-0.674c0-0.243-0.011-0.449-0.034-0.616
		c-0.023-0.168-0.046-0.308-0.069-0.423c-0.023-0.114-0.061-0.216-0.115-0.308c-0.052-0.092-0.159-0.198-0.319-0.32
		c-0.16-0.122-0.396-0.262-0.708-0.422c-0.312-0.161-0.689-0.309-1.131-0.446c-0.442-0.137-0.936-0.252-1.485-0.343
		c-0.548-0.091-1.096-0.137-1.645-0.137c-1.249,0-2.341,0.168-3.278,0.503c-0.936,0.335-1.717,0.78-2.341,1.337
		c-0.625,0.555-1.094,1.203-1.405,1.941c-0.313,0.737-0.469,1.512-0.469,2.317c0,0.914,0.149,1.699,0.446,2.354
		c0.297,0.653,0.689,1.218,1.176,1.689c0.488,0.473,1.04,0.872,1.657,1.2c0.617,0.327,1.249,0.62,1.896,0.878
		c0.646,0.26,1.275,0.507,1.885,0.744c0.608,0.236,1.157,0.505,1.644,0.81c0.488,0.306,0.879,0.655,1.177,1.052
		c0.297,0.396,0.445,0.884,0.445,1.462c0,0.563-0.103,1.051-0.308,1.462C82.373,106.269,82.08,106.608,81.699,106.873z"/>
	<path fill="#EE3034" d="M101.414,91.671c0.229,0,0.411-0.122,0.548-0.366c0.137-0.242,0.206-0.639,0.206-1.187
		c0-0.289-0.016-0.534-0.046-0.732c-0.031-0.196-0.08-0.36-0.148-0.49c-0.068-0.129-0.148-0.221-0.24-0.273
		c-0.091-0.054-0.198-0.081-0.319-0.081h-5.277v-4.888c0-0.107-0.029-0.206-0.092-0.297c-0.06-0.093-0.159-0.172-0.296-0.24
		c-0.137-0.069-0.328-0.117-0.571-0.149c-0.244-0.029-0.556-0.046-0.936-0.046c-0.366,0-0.671,0.017-0.914,0.046
		c-0.244,0.032-0.439,0.08-0.583,0.149c-0.145,0.068-0.244,0.147-0.297,0.24c-0.054,0.091-0.08,0.189-0.08,0.297v4.888h-2.856
		c-0.122,0-0.232,0.027-0.331,0.081c-0.099,0.053-0.179,0.145-0.24,0.273c-0.061,0.13-0.11,0.294-0.148,0.49
		c-0.039,0.198-0.057,0.443-0.057,0.732c0,0.548,0.068,0.944,0.205,1.187c0.138,0.244,0.32,0.366,0.549,0.366h2.878v12.017
		c0,1.187,0.11,2.22,0.332,3.096c0.219,0.876,0.574,1.598,1.061,2.17c0.488,0.571,1.112,0.998,1.873,1.279
		c0.763,0.28,1.676,0.423,2.742,0.423c0.35,0,0.7-0.024,1.051-0.07c0.35-0.044,0.681-0.102,0.993-0.17
		c0.313-0.069,0.59-0.157,0.834-0.263c0.243-0.107,0.426-0.222,0.548-0.343s0.214-0.312,0.274-0.571
		c0.061-0.259,0.092-0.609,0.092-1.051c0-0.273-0.016-0.502-0.046-0.686c-0.031-0.183-0.065-0.328-0.103-0.434
		c-0.038-0.107-0.092-0.18-0.16-0.217c-0.068-0.038-0.142-0.059-0.217-0.059c-0.121,0-0.26,0.035-0.411,0.104
		c-0.153,0.067-0.335,0.141-0.549,0.217c-0.213,0.076-0.457,0.147-0.73,0.217c-0.274,0.068-0.587,0.103-0.937,0.103
		c-1.082,0-1.832-0.361-2.251-1.086c-0.419-0.723-0.628-1.793-0.628-3.209V91.671H101.414z"/>
	<path fill="#EE3034" d="M144.023,110.004c0.061,0.084,0.16,0.156,0.297,0.216c0.137,0.062,0.327,0.107,0.571,0.139
		c0.243,0.029,0.556,0.045,0.937,0.045c0.365,0,0.67-0.016,0.914-0.045c0.243-0.031,0.434-0.077,0.57-0.139
		c0.138-0.06,0.236-0.132,0.298-0.216c0.061-0.084,0.091-0.187,0.091-0.309V97.154c0-1.462-0.126-2.716-0.377-3.759
		s-0.666-1.952-1.245-2.729s-1.336-1.397-2.272-1.862c-0.937-0.464-2.091-0.697-3.461-0.697c-1.173,0-2.334,0.303-3.484,0.902
		c-1.149,0.604-2.304,1.55-3.461,2.845v-2.719c0-0.122-0.026-0.224-0.079-0.308c-0.054-0.083-0.142-0.159-0.263-0.229
		c-0.122-0.067-0.294-0.113-0.515-0.136c-0.221-0.023-0.499-0.035-0.834-0.035c-0.35,0-0.632,0.012-0.845,0.035
		c-0.214,0.022-0.389,0.068-0.525,0.136c-0.137,0.07-0.229,0.146-0.274,0.229c-0.046,0.084-0.068,0.186-0.068,0.308v20.561
		c0,0.122,0.026,0.225,0.08,0.309c0.053,0.084,0.152,0.156,0.297,0.216c0.145,0.062,0.339,0.107,0.583,0.139
		c0.243,0.029,0.548,0.045,0.913,0.045c0.381,0,0.693-0.016,0.937-0.045c0.244-0.031,0.435-0.077,0.571-0.139
		c0.137-0.06,0.236-0.132,0.297-0.216s0.092-0.187,0.092-0.309V95.326c1.035-1.294,2.025-2.277,2.97-2.946
		c0.943-0.67,1.888-1.005,2.832-1.005c0.731,0,1.375,0.136,1.931,0.411c0.556,0.272,1.009,0.67,1.359,1.187
		c0.35,0.519,0.617,1.136,0.8,1.852s0.273,1.66,0.273,2.832v12.039C143.932,109.817,143.962,109.92,144.023,110.004z"/>
	<path fill="#EE3034" d="M162.687,91.305c0.884,0,1.648,0.126,2.296,0.377c0.646,0.252,1.199,0.529,1.656,0.834
		c0.457,0.306,0.834,0.583,1.131,0.834s0.56,0.377,0.788,0.377c0.198,0,0.364-0.117,0.503-0.354
		c0.137-0.236,0.205-0.651,0.205-1.246c0-0.272-0.008-0.501-0.022-0.684c-0.016-0.184-0.046-0.348-0.092-0.491
		c-0.045-0.146-0.103-0.271-0.171-0.377c-0.068-0.107-0.194-0.252-0.377-0.436c-0.184-0.182-0.477-0.402-0.88-0.662
		c-0.403-0.259-0.864-0.486-1.382-0.685s-1.085-0.358-1.702-0.479c-0.616-0.122-1.253-0.184-1.907-0.184
		c-1.355,0-2.615,0.226-3.78,0.674c-1.165,0.449-2.179,1.14-3.039,2.068c-0.86,0.928-1.538,2.121-2.032,3.575
		c-0.495,1.454-0.743,3.193-0.743,5.22c0,1.782,0.202,3.354,0.605,4.716c0.403,1.364,0.99,2.515,1.759,3.451
		c0.77,0.936,1.726,1.648,2.867,2.135c1.143,0.488,2.452,0.731,3.93,0.731c0.715,0,1.408-0.069,2.078-0.205
		c0.67-0.137,1.291-0.317,1.862-0.537c0.571-0.221,1.085-0.472,1.542-0.754s0.78-0.519,0.971-0.708
		c0.19-0.191,0.312-0.335,0.365-0.435c0.053-0.1,0.1-0.214,0.137-0.343c0.038-0.13,0.065-0.289,0.08-0.479
		c0.016-0.191,0.023-0.415,0.023-0.675c0-0.305-0.012-0.566-0.034-0.788c-0.023-0.221-0.062-0.403-0.114-0.548
		c-0.054-0.145-0.118-0.247-0.194-0.31c-0.076-0.06-0.168-0.09-0.274-0.09c-0.183,0-0.438,0.132-0.765,0.399
		c-0.328,0.267-0.731,0.563-1.211,0.891c-0.479,0.328-1.048,0.629-1.702,0.902c-0.655,0.273-1.416,0.41-2.284,0.41
		c-0.914,0-1.725-0.163-2.433-0.49c-0.709-0.327-1.307-0.825-1.794-1.496c-0.487-0.67-0.856-1.504-1.107-2.501
		c-0.252-0.997-0.377-2.159-0.377-3.484c0-2.65,0.483-4.671,1.45-6.064C159.484,92.002,160.874,91.305,162.687,91.305z"/>
	<path fill="#EE3034" d="M189.78,90.974c-0.731-0.875-1.664-1.572-2.799-2.09c-1.135-0.517-2.509-0.777-4.123-0.777
		c-1.508,0-2.871,0.264-4.089,0.788c-1.219,0.526-2.258,1.28-3.118,2.263c-0.861,0.981-1.52,2.179-1.978,3.587
		c-0.457,1.408-0.685,2.996-0.685,4.763c0,1.858,0.221,3.488,0.663,4.888c0.441,1.402,1.097,2.567,1.965,3.495
		c0.868,0.93,1.938,1.63,3.209,2.103c1.271,0.472,2.753,0.708,4.443,0.708c0.975,0,1.893-0.072,2.753-0.218
		c0.86-0.144,1.618-0.308,2.272-0.49c0.655-0.184,1.188-0.369,1.6-0.561c0.411-0.189,0.658-0.327,0.742-0.411
		c0.084-0.083,0.152-0.171,0.205-0.262c0.054-0.091,0.092-0.195,0.115-0.309c0.022-0.114,0.041-0.243,0.057-0.389
		c0.015-0.144,0.022-0.315,0.022-0.514c0-0.274-0.012-0.506-0.034-0.697c-0.022-0.189-0.058-0.339-0.104-0.444
		c-0.046-0.106-0.11-0.188-0.195-0.24c-0.084-0.053-0.179-0.08-0.286-0.08c-0.184,0-0.455,0.08-0.815,0.24
		c-0.359,0.159-0.818,0.339-1.377,0.537c-0.559,0.196-1.221,0.377-1.986,0.535c-0.765,0.16-1.637,0.24-2.616,0.24
		c-1.24,0-2.288-0.174-3.146-0.524c-0.856-0.352-1.553-0.854-2.089-1.509c-0.535-0.653-0.918-1.438-1.147-2.352
		c-0.229-0.914-0.344-1.943-0.344-3.084h13.539c0.383,0,0.723-0.126,1.021-0.377c0.299-0.252,0.447-0.674,0.447-1.27V97.84
		c0-1.341-0.171-2.601-0.514-3.782C191.048,92.879,190.511,91.85,189.78,90.974z M176.896,97.405c0.03-0.838,0.176-1.642,0.437-2.41
		c0.259-0.77,0.628-1.443,1.103-2.022c0.476-0.578,1.065-1.043,1.771-1.393c0.704-0.351,1.524-0.526,2.459-0.526
		c1.823,0,3.199,0.564,4.126,1.691c0.926,1.127,1.367,2.681,1.321,4.66H176.896z"/>
	<path fill="#EE3034" d="M121.354,88.76l-0.804,3.53c-1.437-2.575-3.653-3.862-6.648-3.862c-2.728,0-4.889,1.014-6.482,3.042
		c-1.597,2.028-2.394,4.772-2.394,8.23c0,2.979,0.764,5.472,2.292,7.479c1.528,2.009,3.687,3.013,6.476,3.013
		c2.873,0,5.15-1.43,6.83-4.29c0.183,1.027,0.461,2.282,0.84,3.765h3.727c-1.035-3.406-1.553-7.001-1.553-10.785
		c0-3.341,0.438-6.714,1.314-10.121H121.354z M118.688,105.442c-0.987,1.373-2.375,2.06-4.165,2.06
		c-1.814,0-3.208-0.741-4.182-2.225c-0.976-1.481-1.462-3.438-1.462-5.869c0-2.652,0.493-4.691,1.479-6.114
		c0.986-1.424,2.375-2.136,4.164-2.136c1.936,0,3.361,0.734,4.273,2.203c0.913,1.47,1.37,3.427,1.37,5.87
		C120.166,102.002,119.673,104.073,118.688,105.442z"/>
	<path fill="#1AC2EC" d="M132.367-144.527c0,0-4.817-12.598-9.397-19.872c-5.663-8.993-11.554-16.595-18.306-24.766
		C84-214.168,54.36-208.26,35.488-191.684C16.172-174.72-28.662-95.386,33.98-34.806c3.774,3.649,10.847,6.945,19.386,6.243
		c30.325-5.431,52.551-24.709,75.502-44.561c7.129,12.652,19.268,30.578,25.849,43.127l36.677,0.195
		c-12.059-20.925-27.719-45.559-40.421-67.116c-4.725,5.213-9.012,9.945-13.298,14.675c24.177-36.68,46.255-74.124,50.11-120.507
		h-38.968c-2.153,14.665-3.359,29.988-6.87,44.762c-3.438,14.473-9.222,28.388-13.977,42.548
		C127.252-115.64,132.768-137.099,132.367-144.527z M115.478-97C104.778-82.832,93.28-69.329,77.774-60.098
		c-18.445,10.979-31.749,5.981-37.222-14.72c-2.894-10.949-3.744-22.439-4.723-28.65c0.9-25.05,2.709-44.639,12.028-62.679
		c8.224-15.92,18.391-17.631,30.012-3.915c7.158,8.449,26.86,30.691,37.571,66.183C116.057-101.837,116.6-98.488,115.478-97z"/>
	<rect x="154.879" y="-28.468" fill="#EE3034" width="36.516" height="3.481"/>
</g>
</svg>
